<svg width="25" height="24" viewBox="0 0 25 24" fill="none" xmlns="http://www.w3.org/2000/svg">
<path d="M16.499 8.5H18.499C18.499 5.663 15.744 4.369 13.499 4.071V2H11.499V4.071C9.25402 4.369 6.49902 5.663 6.49902 8.5C6.49902 11.206 9.16502 12.613 11.499 12.93V17.9C10.051 17.649 8.49902 16.876 8.49902 15.5H6.49902C6.49902 18.089 8.92402 19.619 11.499 19.936V22H13.499V19.93C15.744 19.632 18.499 18.337 18.499 15.5C18.499 12.663 15.744 11.369 13.499 11.071V6.1C14.829 6.339 16.499 7.041 16.499 8.5ZM8.49902 8.5C8.49902 7.041 10.169 6.339 11.499 6.1V10.899C10.128 10.646 8.49902 9.897 8.49902 8.5ZM16.499 15.5C16.499 16.959 14.829 17.661 13.499 17.9V13.1C14.829 13.339 16.499 14.041 16.499 15.5Z" fill="white"/>
</svg>
