<svg width="25" height="24" viewBox="0 0 25 24" fill="none" xmlns="http://www.w3.org/2000/svg">
<path d="M12.5 2C6.986 2 2.5 6.486 2.5 12C2.5 17.514 6.986 22 12.5 22C18.014 22 22.5 17.514 22.5 12C22.5 6.486 18.014 2 12.5 2ZM12.5 20C8.089 20 4.5 16.411 4.5 12C4.5 7.589 8.089 4 12.5 4C16.911 4 20.5 7.589 20.5 12C20.5 16.411 16.911 20 12.5 20Z" fill="white"/>
<path d="M9 12C9.82843 12 10.5 11.3284 10.5 10.5C10.5 9.67157 9.82843 9 9 9C8.17157 9 7.5 9.67157 7.5 10.5C7.5 11.3284 8.17157 12 9 12Z" fill="white"/>
<path d="M15.993 11.986C16.8176 11.986 17.486 11.3176 17.486 10.493C17.486 9.66844 16.8176 9 15.993 9C15.1684 9 14.5 9.66844 14.5 10.493C14.5 11.3176 15.1684 11.986 15.993 11.986Z" fill="white"/>
<path d="M12.5 18C16.5 18 17.5 14 17.5 14H7.5C7.5 14 8.5 18 12.5 18Z" fill="white"/>
</svg>
