<svg width="25" height="24" viewBox="0 0 25 24" fill="none" xmlns="http://www.w3.org/2000/svg">
<path d="M2.5 20H22.5V22H2.5V20ZM4.5 3V17C4.5 17.2652 4.60536 17.5196 4.79289 17.7071C4.98043 17.8946 5.23478 18 5.5 18H10.5C10.7652 18 11.0196 17.8946 11.2071 17.7071C11.3946 17.5196 11.5 17.2652 11.5 17V3C11.5 2.73478 11.3946 2.48043 11.2071 2.29289C11.0196 2.10536 10.7652 2 10.5 2H5.5C5.23478 2 4.98043 2.10536 4.79289 2.29289C4.60536 2.48043 4.5 2.73478 4.5 3ZM6.5 4H9.5V16H6.5V4ZM13.5 17C13.5 17.2652 13.6054 17.5196 13.7929 17.7071C13.9804 17.8946 14.2348 18 14.5 18H19.5C19.7652 18 20.0196 17.8946 20.2071 17.7071C20.3946 17.5196 20.5 17.2652 20.5 17V7C20.5 6.73478 20.3946 6.48043 20.2071 6.29289C20.0196 6.10536 19.7652 6 19.5 6H14.5C14.2348 6 13.9804 6.10536 13.7929 6.29289C13.6054 6.48043 13.5 6.73478 13.5 7V17ZM15.5 8H18.5V16H15.5V8Z" fill="white"/>
</svg>
