<svg width="25" height="24" viewBox="0 0 25 24" fill="none" xmlns="http://www.w3.org/2000/svg">
<path d="M18.5 15C18.317 15 18.142 15.022 17.968 15.054L9.446 6.532C9.478 6.359 9.5 6.182 9.5 6C9.5 4.346 8.154 3 6.5 3C4.846 3 3.5 4.346 3.5 6C3.5 7.302 4.339 8.401 5.5 8.815V15.184C4.91685 15.3897 4.4116 15.7708 4.05354 16.2749C3.69548 16.7791 3.50213 17.3816 3.5 18C3.5 19.654 4.846 21 6.5 21C7.11833 20.9982 7.72095 20.805 8.22501 20.4469C8.72908 20.0888 9.10985 19.5833 9.315 19H15.684C15.8893 19.5832 16.2701 20.0886 16.7741 20.4467C17.2782 20.8048 17.8807 20.9981 18.499 21C20.153 21 21.499 19.654 21.499 18C21.499 16.346 20.154 15 18.5 15ZM7.5 15.184V8.816C7.829 8.698 8.129 8.525 8.394 8.308L16.193 16.107C15.9728 16.3731 15.8009 16.6757 15.685 17.001H9.315C9.16645 16.5823 8.92648 16.202 8.61252 15.8877C8.29856 15.5734 7.91851 15.333 7.5 15.184ZM6.5 5C6.69806 4.9998 6.89174 5.05837 7.0565 5.16828C7.22127 5.2782 7.34972 5.43452 7.42561 5.61747C7.5015 5.80042 7.52141 6.00177 7.48281 6.19604C7.44422 6.39031 7.34887 6.56876 7.20881 6.70881C7.06876 6.84887 6.89031 6.94422 6.69604 6.98281C6.50177 7.02141 6.30042 7.0015 6.11747 6.92561C5.93452 6.84972 5.7782 6.72127 5.66828 6.5565C5.55837 6.39174 5.4998 6.19806 5.5 6C5.5 5.449 5.948 5 6.5 5ZM6.5 19C6.24252 18.9885 5.99941 18.8781 5.82128 18.6918C5.64315 18.5055 5.54373 18.2577 5.54373 18C5.54373 17.7423 5.64315 17.4945 5.82128 17.3082C5.99941 17.1219 6.24252 17.0115 6.5 17C6.75748 17.0115 7.00059 17.1219 7.17872 17.3082C7.35685 17.4945 7.45627 17.7423 7.45627 18C7.45627 18.2577 7.35685 18.5055 7.17872 18.6918C7.00059 18.8781 6.75748 18.9885 6.5 19ZM18.5 19C18.2425 18.9885 17.9994 18.8781 17.8213 18.6918C17.6431 18.5055 17.5437 18.2577 17.5437 18C17.5437 17.7423 17.6431 17.4945 17.8213 17.3082C17.9994 17.1219 18.2425 17.0115 18.5 17C18.7575 17.0115 19.0006 17.1219 19.1787 17.3082C19.3569 17.4945 19.4563 17.7423 19.4563 18C19.4563 18.2577 19.3569 18.5055 19.1787 18.6918C19.0006 18.8781 18.7575 18.9885 18.5 19Z" fill="white"/>
</svg>
